<svg width="153" height="57" viewBox="0 0 153 57" fill="none" xmlns="http://www.w3.org/2000/svg">
<g clip-path="url(#clip0_1341_34)">
<path d="M73.941 3.26081L59.3857 0C59.3857 0 70.476 15.9507 75.7442 18.1473C75.7442 18.1473 73.7833 20.617 72.6512 26.5001L64.1 16.5209L59.9477 17.7257L64.3952 31.6725L72.1418 30.0943C71.9623 31.8703 71.8745 33.6543 71.879 35.4393L69.1054 32.7286C69.1054 32.7286 69.251 38.7162 69.6432 42.5833L65.782 40.206L64.6297 41.8605L68.414 45.559L68.8184 45.3382C68.7698 47.081 68.8588 52.9039 71.8911 57.004L72.724 45.6514L74.6647 44.6153L75.7442 34.1341L78.7928 32.7206C78.7928 32.7206 86.0016 17.5972 88.4963 15.3965C88.4963 15.4005 73.8035 4.32098 73.941 3.26081ZM69.2469 45.0812L69.914 44.7117C69.9616 45.0362 70.0584 45.3517 70.2011 45.6474L69.2469 45.0812Z" fill="#F59E0B"/>
<path d="M59.3857 0C59.3857 0 74.3938 16.292 77.41 16.8904C77.41 16.8904 71.8628 25.6127 71.8628 35.5236L69.0892 32.7688C69.0892 32.7688 69.5987 45.4105 70.2011 45.7116L68.8143 44.8844C68.8143 44.8844 70.9612 55.5061 71.8628 57C71.8628 57 66.4208 49.631 64.6135 41.8565H65.8264C65.8264 41.8565 59.503 18.7055 59.9558 17.7216L64.3224 23.914C64.3224 23.914 60.441 14.2038 59.3857 0Z" fill="#FACC15"/>
<path d="M12.0002 49.354C12.1709 49.701 12.2803 50.0745 12.3236 50.4583C12.3236 50.9965 11.8789 51.4502 10.9975 51.8157C10.6531 51.9865 10.2778 52.0876 9.89369 52.1128C9.64962 52.1247 9.40872 52.0539 9.21041 51.9121C9.05121 51.8049 8.914 51.6686 8.80609 51.5105C8.66324 51.2428 8.10663 49.9604 7.13628 47.6634L6.47321 47.7075H3.78857V50.117C3.79193 50.361 3.78113 50.6051 3.75623 50.8479C3.71857 51.0426 3.6489 51.2298 3.55003 51.4021C3.35192 51.8036 2.79396 51.9723 1.88426 51.9723C0.886956 51.9723 0.30205 51.7046 0.129543 51.1691C0.0296473 50.8125 -0.0139975 50.4427 0.000163167 50.0728V38.2825C-0.00318971 38.0385 0.00760984 37.7944 0.0325082 37.5516C0.0654039 37.3524 0.133865 37.1607 0.234664 36.9854C0.436821 36.6039 0.990729 36.4111 1.90448 36.4111H6.52577C7.85851 36.4447 9.14076 36.9244 10.1646 37.7725C10.7671 38.2518 11.2511 38.8617 11.5797 39.5555C11.9548 40.3391 12.1443 41.1977 12.1336 42.0654C12.156 42.7996 12.0237 43.5303 11.7452 44.2108C11.4667 44.8913 11.0482 45.5065 10.5163 46.0169C10.8506 46.7665 11.3452 47.8789 12.0002 49.354ZM3.78857 43.9327H6.52577C6.98013 43.9187 7.41686 43.7548 7.76701 43.4669C7.97637 43.3002 8.142 43.0857 8.24972 42.8416C8.35745 42.5976 8.40407 42.3312 8.38561 42.0654C8.40334 41.7978 8.35645 41.53 8.24885 41.2841C8.14124 41.0382 7.97604 40.8214 7.76701 40.6518C7.40361 40.3452 6.94578 40.171 6.46917 40.1579H3.78857V43.9327Z" fill="#F59E0B"/>
<path d="M22.5487 37.5193L28.3223 49.394C28.518 49.7264 28.642 50.0957 28.6862 50.4782C28.6862 50.9882 28.2819 51.446 27.445 51.8597C27.0943 52.0608 26.704 52.1841 26.3007 52.2211C26.058 52.2316 25.8184 52.164 25.6175 52.0283C25.4532 51.9274 25.3147 51.7899 25.2131 51.6267C25.1323 51.4862 25.0231 51.2734 24.8776 50.9923L23.7657 48.6952H17.8627L16.7509 50.9923C16.6053 51.2734 16.4962 51.4782 16.4193 51.6067C16.311 51.7644 16.1739 51.9006 16.015 52.0082C15.8167 52.1501 15.5758 52.2208 15.3317 52.209C14.9285 52.1721 14.5382 52.0488 14.1875 51.8476C13.3574 51.4541 12.9436 51.0016 12.9463 50.4903C12.9988 50.1011 13.1338 49.7275 13.3425 49.394L19.104 37.4952C19.2563 37.1624 19.5056 36.8827 19.8196 36.6921C20.1215 36.4965 20.474 36.3919 20.8344 36.3909C21.2016 36.3847 21.5619 36.4893 21.868 36.6907C22.174 36.8922 22.4114 37.1811 22.5487 37.5193ZM20.8142 42.6153L19.4072 45.5268H22.2374L20.8142 42.6153Z" fill="#F59E0B"/>
<path d="M39.1052 36.7126C39.8006 37.1904 40.1523 37.6603 40.1523 38.1141C40.0934 38.5263 39.9229 38.9149 39.6591 39.2385L35.0378 46.1015V50.1614C35.0432 50.4055 35.0324 50.6496 35.0054 50.8923C34.9731 51.0904 34.9046 51.2809 34.8033 51.4545C34.7421 51.5636 34.6594 51.6594 34.56 51.736C34.4607 51.8126 34.3467 51.8684 34.2251 51.9002C33.5089 52.0716 32.7621 52.0716 32.0459 51.9002C31.9235 51.8677 31.809 51.8107 31.7096 51.7327C31.6102 51.6546 31.5279 51.5572 31.4677 51.4465C31.3684 51.2676 31.3001 51.0735 31.2656 50.8722C31.2384 50.6215 31.2276 50.3693 31.2332 50.1172V46.1015L26.6119 39.2385C26.3481 38.9149 26.1776 38.5263 26.1187 38.1141C26.1187 37.6603 26.434 37.2226 27.0607 36.8049C27.4506 36.4889 27.9131 36.2737 28.4071 36.1785C28.6345 36.1656 28.86 36.2262 29.0499 36.3511C29.3646 36.585 29.6263 36.8819 29.8181 37.2226L33.1537 42.4913L36.4691 37.2226C36.6438 36.9029 36.8768 36.6182 37.1564 36.3833C37.3617 36.2461 37.6044 36.1747 37.8518 36.1785C38.3072 36.2523 38.7375 36.4357 39.1052 36.7126Z" fill="#F59E0B"/>
<path d="M48.6875 36.2222C49.7253 36.2295 50.7514 36.4403 51.7069 36.8424C52.6625 37.2445 53.5287 37.83 54.256 38.5654C54.9832 39.3007 55.5571 40.1715 55.9447 41.1276C56.3324 42.0838 56.5262 43.1066 56.515 44.1373C56.5614 46.2648 55.7625 48.3249 54.2913 49.8718C53.6034 50.6337 52.7584 51.2397 51.8138 51.6485C50.8692 52.0573 49.8471 52.2594 48.8169 52.2411C47.7818 52.2566 46.7549 52.0567 45.8023 51.6541C44.8497 51.2516 43.9925 50.6554 43.2859 49.9039C42.5506 49.1746 41.97 48.3063 41.5783 47.3503C41.1866 46.3944 40.9919 45.3701 41.0056 44.3381C40.9972 43.205 41.2157 42.0815 41.6484 41.0331C42.0376 40.0658 42.6208 39.1872 43.3627 38.4509C44.074 37.7606 44.9073 37.2065 45.8209 36.8165C46.725 36.4244 47.701 36.222 48.6875 36.2222ZM44.794 44.2537C44.7699 44.8208 44.8654 45.3867 45.0743 45.915C45.2831 46.4433 45.6008 46.9225 46.0069 47.3218C46.3591 47.6918 46.7832 47.9872 47.2535 48.19C47.7238 48.3929 48.2305 48.499 48.7433 48.502C49.256 48.505 49.764 48.4048 50.2366 48.2075C50.7093 48.0102 51.1368 47.7198 51.4934 47.3539C51.9029 46.9546 52.2227 46.4737 52.4318 45.9428C52.6408 45.4119 52.7344 44.8432 52.7064 44.2738C52.7335 43.701 52.6396 43.1288 52.4307 42.5942C52.2218 42.0596 51.9025 41.5743 51.4934 41.1696C51.1355 40.8043 50.7082 40.5129 50.2364 40.3124C49.7645 40.1118 49.2573 40.006 48.7441 40.001C48.2315 40.0056 47.725 40.1124 47.2548 40.3153C46.7846 40.5181 46.3602 40.8127 46.0069 41.1817C45.6035 41.5796 45.2874 42.0562 45.0786 42.5815C44.8699 43.1068 44.7729 43.6693 44.794 44.2337V44.2537Z" fill="#F59E0B"/>
<path d="M83.9274 49.7958C83.6084 49.4617 83.4131 49.0298 83.3735 48.571C83.3735 48.2096 83.6768 47.7317 84.2913 47.1374C84.4373 46.9819 84.6129 46.8568 84.8079 46.7693C85.0029 46.6817 85.2135 46.6335 85.4274 46.6274C85.8318 46.6274 86.3816 46.9848 87.0932 47.6916C87.338 47.9678 87.6277 48.2013 87.9504 48.3823C88.2563 48.5824 88.6113 48.6963 88.9773 48.7116C90.3035 48.7116 90.9665 48.1761 90.9665 47.1053C90.9559 46.9352 90.8997 46.7711 90.8037 46.6299C90.7077 46.4887 90.5755 46.3755 90.4207 46.3021C90.0007 46.0624 89.5404 45.9005 89.0622 45.8242C87.8355 45.5846 86.6524 45.1622 85.5528 44.5713C84.9744 44.2373 84.5033 43.7472 84.1943 43.1577C83.8131 42.4426 83.6251 41.6415 83.6485 40.8326C83.6455 40.2227 83.7685 39.6187 84.0098 39.0578C84.2511 38.497 84.6056 37.9912 85.0514 37.5718C85.9867 36.6187 87.259 36.1422 88.8681 36.1422C89.6621 36.1325 90.453 36.2436 91.2132 36.4715C91.7378 36.6053 92.2337 36.8325 92.6768 37.1421L93.2105 37.5437C93.6552 37.9453 93.8735 38.3027 93.8735 38.5838C93.8162 39.0139 93.6399 39.4198 93.3641 39.7564C92.8749 40.4672 92.3776 40.8206 91.8641 40.8206C91.4608 40.7842 91.0757 40.6368 90.7522 40.3949C90.6643 40.3308 90.5818 40.2596 90.5056 40.1821C90.401 40.0829 90.2903 39.9904 90.1741 39.905C89.8253 39.7111 89.4293 39.6166 89.0299 39.6319C88.6188 39.6155 88.2134 39.731 87.8735 39.9612C87.7259 40.0623 87.6066 40.199 87.5267 40.3584C87.4468 40.5179 87.4089 40.6948 87.4167 40.8728C87.4163 41.0643 87.4666 41.2526 87.5623 41.4189C87.6581 41.5852 87.7961 41.7237 87.9625 41.8205C88.3742 42.079 88.8379 42.2449 89.321 42.3064C89.9197 42.4071 90.5123 42.5412 91.0959 42.708C91.7058 42.8773 92.2997 43.099 92.8708 43.3706C93.4517 43.6608 93.9267 44.1241 94.2293 44.6958C94.6142 45.411 94.8025 46.2144 94.7752 47.0249C94.79 47.8613 94.5984 48.6885 94.2172 49.4344C93.8854 50.0949 93.3831 50.6561 92.7617 51.0608C91.669 51.7942 90.3809 52.1871 89.0622 52.1892C88.4193 52.1915 87.779 52.1091 87.1579 51.9443C86.6448 51.8161 86.1541 51.6116 85.7024 51.3379C85.0918 51.0086 84.5542 50.5606 84.1215 50.0207L83.9274 49.7958Z" fill="#F59E0B"/>
<path d="M105.853 36.9854C105.915 36.8774 105.998 36.7828 106.098 36.707C106.197 36.6311 106.31 36.5756 106.431 36.5437C107.096 36.384 107.789 36.384 108.453 36.5437C108.652 36.5957 108.841 36.6813 109.011 36.7966C109.148 36.9088 109.251 37.056 109.31 37.2223C109.396 37.5839 109.433 37.9554 109.419 38.3267V50.121C109.423 50.365 109.412 50.6091 109.387 50.8519C109.345 51.0467 109.27 51.2329 109.164 51.402C108.966 51.8036 108.408 51.9723 107.499 51.9723C106.501 51.9723 105.917 51.7046 105.744 51.1691C105.643 50.8087 105.599 50.4347 105.615 50.0608V45.78H99.9542V50.117C99.9576 50.361 99.9468 50.6051 99.9219 50.8479C99.889 51.0471 99.8205 51.2388 99.7197 51.4141C99.5176 51.8157 98.9637 51.9843 98.0499 51.9843C97.0513 51.9843 96.4691 51.7233 96.2952 51.1812C96.1959 50.8204 96.1537 50.4465 96.1699 50.0728V38.2825C96.1656 38.0385 96.1751 37.7945 96.1982 37.5516C96.2345 37.3527 96.3042 37.1613 96.4044 36.9854C96.6025 36.6039 97.1604 36.4111 98.0701 36.4111C99.0688 36.4111 99.6631 36.6762 99.8491 37.2143C99.9313 37.5765 99.9666 37.9476 99.9542 38.3186V42.6557H105.615V38.2825C105.611 38.0384 105.622 37.7944 105.647 37.5516C105.681 37.3522 105.751 37.1604 105.853 36.9854Z" fill="#F59E0B"/>
<path d="M120.166 37.5193L125.939 49.394C126.135 49.7264 126.259 50.0957 126.303 50.4783C126.303 50.9883 125.899 51.4461 125.062 51.8597C124.711 52.0609 124.321 52.1842 123.918 52.2211C123.675 52.2308 123.436 52.1632 123.234 52.0284C123.077 51.9251 122.946 51.7878 122.85 51.6268C122.769 51.4862 122.66 51.2734 122.519 50.9923L121.407 48.6953H115.48L114.368 50.9923C114.226 51.2734 114.113 51.4782 114.036 51.6067C113.936 51.7639 113.805 51.9003 113.652 52.0083C113.454 52.1495 113.213 52.2202 112.969 52.2091C112.565 52.1718 112.173 52.0486 111.821 51.8476C110.996 51.4541 110.583 51.0017 110.583 50.4903C110.626 50.1073 110.75 49.7376 110.947 49.406L116.721 37.5274C116.883 37.2065 117.13 36.9357 117.436 36.7446C117.742 36.5534 118.094 36.4492 118.455 36.4431C118.816 36.433 119.171 36.53 119.476 36.7217C119.781 36.9135 120.021 37.1912 120.166 37.5193ZM118.431 42.6154L117.02 45.5268H119.85L118.431 42.6154Z" fill="#F59E0B"/>
<path d="M136.209 47.9082L136.593 47.6311C136.9 47.4154 137.25 47.27 137.62 47.2054C138.065 47.2054 138.543 47.607 139.055 48.4102C139.316 48.7636 139.478 49.1792 139.524 49.6149C139.528 49.7514 139.505 49.8874 139.456 50.0149C139.407 50.1425 139.332 50.259 139.237 50.3578C139.037 50.563 138.81 50.7412 138.562 50.8879L137.822 51.3336C137.362 51.5681 136.878 51.7539 136.379 51.8878C135.698 52.1067 134.988 52.2218 134.272 52.2292C133.579 52.2276 132.889 52.1372 132.219 51.9601C131.469 51.759 130.749 51.4592 130.08 51.0686C129.351 50.6547 128.685 50.1395 128.103 49.5386C127.474 48.8688 126.983 48.0829 126.659 47.2255C126.273 46.2472 126.079 45.2043 126.089 44.1534C126.075 43.1242 126.264 42.1022 126.647 41.1456C126.972 40.3183 127.455 39.5614 128.07 38.9168C128.651 38.3282 129.317 37.83 130.047 37.439C131.331 36.7052 132.783 36.3099 134.264 36.2905C135.521 36.3143 136.755 36.6248 137.871 37.1981L138.384 37.4953C138.639 37.6519 138.841 37.7804 138.983 37.8968C139.148 38.01 139.284 38.1602 139.381 38.3353C139.477 38.5103 139.53 38.7054 139.537 38.9048C139.513 39.3295 139.355 39.7359 139.084 40.0654C138.53 40.8324 138.028 41.2139 137.588 41.2139C137.189 41.1577 136.812 40.9969 136.496 40.748C135.807 40.2377 134.961 39.9821 134.103 40.0252C133.11 40.0465 132.15 40.3812 131.361 40.981C130.906 41.33 130.54 41.7814 130.294 42.2981C130.012 42.9006 129.865 43.5571 129.865 44.2217C129.865 44.8863 130.012 45.5428 130.294 46.1453C130.544 46.6718 130.919 47.1306 131.386 47.4825C132.167 48.0757 133.119 48.4038 134.103 48.4182C134.525 48.4207 134.946 48.3639 135.352 48.2495C135.652 48.1752 135.94 48.0604 136.209 47.9082Z" fill="#F59E0B"/>
<path d="M147.655 44.1738C149.833 46.2539 151.38 47.8187 152.296 48.8682C152.679 49.2167 152.928 49.6867 153 50.1974C153 50.5588 152.717 51.0006 152.147 51.4704C151.577 51.9403 151.108 52.2053 150.744 52.2053C150.38 52.2053 149.935 51.9041 149.43 51.3098L144.744 45.9728V50.1171C144.748 50.3652 144.737 50.6132 144.712 50.86C144.675 51.0545 144.607 51.2417 144.509 51.4142C144.307 51.7957 143.753 51.9885 142.84 51.9885C141.84 51.9885 141.255 51.7207 141.085 51.1853C140.983 50.8332 140.939 50.467 140.955 50.101V38.2826C140.952 38.0386 140.963 37.7945 140.988 37.5517C141.021 37.3525 141.089 37.1608 141.19 36.9855C141.392 36.604 141.946 36.4112 142.86 36.4112C143.858 36.4112 144.449 36.6763 144.635 37.2144C144.721 37.576 144.757 37.9474 144.744 38.3187V42.3787C146.682 40.2102 148.251 38.4325 149.45 37.0457C149.947 36.4635 150.384 36.1743 150.752 36.1743C151.12 36.1743 151.597 36.4193 152.167 36.9092C152.737 37.3991 153.02 37.8208 153.02 38.1822C152.961 38.6714 152.734 39.1253 152.377 39.4673C151.553 40.415 150.27 41.7188 148.528 43.3786L147.655 44.1738Z" fill="#F59E0B"/>
</g>
<defs>
<clipPath id="clip0_1341_34">
<rect width="153" height="57" fill="white"/>
</clipPath>
</defs>
</svg>
