<svg width="126" height="67" viewBox="0 0 126 67" fill="none" xmlns="http://www.w3.org/2000/svg">
<g clip-path="url(#clip0_142_636)">
<path d="M60.8926 2.79498L48.9058 0C48.9058 0 58.039 13.672 62.3775 15.5548C62.3775 15.5548 60.7627 17.6717 59.8304 22.7144L52.7882 14.1608L49.3686 15.1935L53.0313 27.1479L59.4109 25.7951C59.263 27.3174 59.1907 28.8465 59.1944 30.3766L56.9103 28.0531C56.9103 28.0531 57.0302 33.1853 57.3532 36.5L54.1734 34.4623L53.2244 35.8804L56.3409 39.0506L56.6739 38.8613C56.6339 40.3552 56.7072 45.3462 59.2044 48.8606L59.8903 39.1298L61.4885 38.2417L62.3775 29.2578L64.8882 28.0462C64.8882 28.0462 70.8248 15.0833 72.8793 13.197C72.8793 13.2004 60.7793 3.7037 60.8926 2.79498ZM57.0268 38.641L57.5762 38.3243C57.6154 38.6025 57.6951 38.8729 57.8126 39.1264L57.0268 38.641Z" fill="#F59E0B"/>
<path d="M48.9058 0C48.9058 0 61.2655 13.9646 63.7494 14.4775C63.7494 14.4775 59.1811 21.9537 59.1811 30.4488L56.897 28.0875C56.897 28.0875 57.3165 38.9233 57.8126 39.1814L56.6706 38.4724C56.6706 38.4724 58.4386 47.5767 59.1811 48.8572C59.1811 48.8572 54.6994 42.5409 53.2111 35.877H54.2099C54.2099 35.877 49.0024 16.0333 49.3753 15.1899L52.9713 20.4977C52.9713 20.4977 49.7749 12.1747 48.9058 0Z" fill="#FACC15"/>
<path d="M9.88245 42.3034C10.023 42.6009 10.1131 42.921 10.1488 43.25C10.1488 43.7113 9.78256 44.1002 9.0567 44.4135C8.77308 44.5599 8.46401 44.6465 8.14768 44.6681C7.94668 44.6783 7.74829 44.6176 7.58498 44.4961C7.45387 44.4042 7.34088 44.2874 7.25201 44.1519C7.13437 43.9224 6.67598 42.8232 5.87687 40.8544L5.33081 40.8922H3.11993V42.9574C3.1227 43.1666 3.11381 43.3758 3.0933 43.5839C3.06229 43.7508 3.00491 43.9113 2.92349 44.059C2.76034 44.4031 2.30084 44.5477 1.55168 44.5477C0.73037 44.5477 0.248682 44.3182 0.106618 43.8592C0.0243508 43.5536 -0.011592 43.2366 6.97519e-05 42.9196V32.8136C-0.00269144 32.6044 0.0062023 32.3952 0.0267068 32.1871C0.0537974 32.0164 0.110177 31.8521 0.193188 31.7018C0.35967 31.3748 0.81583 31.2095 1.56833 31.2095H5.3741C6.47165 31.2383 7.52762 31.6495 8.37078 32.3764C8.86696 32.7873 9.26555 33.31 9.53616 33.9047C9.84507 34.5764 10.0011 35.3123 9.99231 36.0561C10.0108 36.6854 9.90181 37.3117 9.67245 37.895C9.4431 38.4783 9.09845 39.0056 8.66042 39.4431C8.93572 40.0856 9.34304 41.0391 9.88245 42.3034ZM3.11993 37.6566H5.3741C5.74828 37.6446 6.10794 37.5041 6.3963 37.2574C6.56871 37.1145 6.70511 36.9306 6.79382 36.7214C6.88254 36.5122 6.92093 36.2839 6.90573 36.0561C6.92033 35.8267 6.88172 35.5972 6.79311 35.3864C6.70449 35.1756 6.56844 34.9898 6.3963 34.8444C6.09703 34.5816 5.71999 34.4323 5.32749 34.4211H3.11993V37.6566Z" fill="#F59E0B"/>
<path d="M18.5695 32.1594L23.3242 42.3377C23.4854 42.6226 23.5875 42.9392 23.6239 43.267C23.6239 43.7042 23.291 44.0966 22.6017 44.4512C22.3129 44.6235 21.9915 44.7292 21.6594 44.7609C21.4595 44.7699 21.2622 44.712 21.0967 44.5957C20.9614 44.5092 20.8474 44.3914 20.7637 44.2515C20.6972 44.131 20.6072 43.9486 20.4874 43.7077L19.5717 41.7388H14.7104L13.7948 43.7077C13.6749 43.9486 13.5851 44.1242 13.5218 44.2343C13.4326 44.3695 13.3197 44.4862 13.1888 44.5785C13.0255 44.7001 12.8271 44.7607 12.6261 44.7506C12.294 44.7189 11.9726 44.6133 11.6838 44.4408C11.0002 44.1035 10.6594 43.7157 10.6616 43.2774C10.7049 42.9438 10.816 42.6236 10.9879 42.3377L15.7327 32.1388C15.8581 31.8535 16.0634 31.6138 16.322 31.4504C16.5706 31.2827 16.8609 31.1931 17.1577 31.1922C17.4601 31.1869 17.7568 31.2766 18.0089 31.4492C18.2609 31.6219 18.4564 31.8695 18.5695 32.1594ZM17.1411 36.5274L15.9824 39.023H18.3131L17.1411 36.5274Z" fill="#F59E0B"/>
<path d="M32.2043 31.468C32.777 31.8775 33.0666 32.2803 33.0666 32.6692C33.0181 33.0226 32.8777 33.3556 32.6604 33.633L28.8547 39.5156V42.9955C28.8591 43.2047 28.8502 43.414 28.828 43.622C28.8014 43.7918 28.745 43.9551 28.6615 44.1039C28.6111 44.1974 28.543 44.2795 28.4612 44.3452C28.3794 44.4108 28.2855 44.4587 28.1854 44.4859C27.5956 44.6328 26.9805 44.6328 26.3907 44.4859C26.2899 44.4581 26.1956 44.4092 26.1138 44.3423C26.0319 44.2754 25.9642 44.1919 25.9146 44.097C25.8328 43.9437 25.7766 43.7773 25.7481 43.6048C25.7257 43.3899 25.7168 43.1737 25.7215 42.9576V39.5156L21.9157 33.633C21.6984 33.3556 21.558 33.0226 21.5095 32.6692C21.5095 32.2803 21.7692 31.9051 22.2853 31.5471C22.6064 31.2762 22.9873 31.0918 23.3941 31.0102C23.5814 30.9991 23.7671 31.051 23.9234 31.1581C24.1826 31.3586 24.3981 31.6131 24.5561 31.9051L27.303 36.4211L30.0334 31.9051C30.1772 31.6311 30.3691 31.387 30.5994 31.1857C30.7685 31.0681 30.9683 31.0069 31.1721 31.0102C31.5471 31.0734 31.9015 31.2306 32.2043 31.468Z" fill="#F59E0B"/>
<path d="M40.0956 31.0476C40.9502 31.0539 41.7953 31.2346 42.5821 31.5792C43.3691 31.9239 44.0825 32.4257 44.6814 33.0561C45.2803 33.6863 45.7529 34.4327 46.0721 35.2522C46.3914 36.0718 46.551 36.9485 46.5418 37.832C46.58 39.6556 45.9221 41.4214 44.7105 42.7473C44.144 43.4003 43.4481 43.9198 42.6702 44.2702C41.8923 44.6206 41.0505 44.7938 40.2021 44.7781C39.3497 44.7914 38.504 44.62 37.7195 44.275C36.935 43.93 36.2291 43.4189 35.6472 42.7748C35.0417 42.1497 34.5635 41.4054 34.2409 40.586C33.9184 39.7666 33.758 38.8887 33.7693 38.0041C33.7624 37.0329 33.9423 36.0699 34.2987 35.1712C34.6192 34.3421 35.0995 33.589 35.7104 32.9579C36.2962 32.3662 36.9825 31.8913 37.7348 31.557C38.4794 31.2209 39.2832 31.0474 40.0956 31.0476ZM36.8892 37.9318C36.8693 38.4178 36.948 38.9029 37.12 39.3557C37.2919 39.8086 37.5536 40.2193 37.888 40.5616C38.1781 40.8787 38.5273 41.1319 38.9146 41.3057C39.3019 41.4796 39.7192 41.5706 40.1415 41.5732C40.5638 41.5757 40.9821 41.4898 41.3713 41.3207C41.7606 41.1516 42.1127 40.9027 42.4063 40.5891C42.7436 40.2468 43.0069 39.8346 43.1791 39.3796C43.3512 38.9245 43.4283 38.437 43.4053 37.949C43.4276 37.458 43.3503 36.9676 43.1782 36.5093C43.0062 36.0511 42.7432 35.6351 42.4063 35.2882C42.1116 34.9751 41.7597 34.7254 41.3711 34.5535C40.9825 34.3816 40.5648 34.2909 40.1422 34.2866C39.72 34.2905 39.3029 34.3821 38.9157 34.556C38.5285 34.7298 38.179 34.9823 37.888 35.2986C37.5558 35.6397 37.2955 36.0482 37.1235 36.4984C36.9517 36.9487 36.8718 37.4308 36.8892 37.9146V37.9318Z" fill="#F59E0B"/>
<path d="M69.1167 42.6821C68.854 42.3958 68.6931 42.0256 68.6605 41.6323C68.6605 41.3225 68.9103 40.9129 69.4164 40.4035C69.5366 40.2702 69.6812 40.163 69.8418 40.088C70.0024 40.0129 70.1758 39.9716 70.352 39.9664C70.685 39.9664 71.1378 40.2727 71.7238 40.8785C71.9254 41.1153 72.164 41.3154 72.4297 41.4706C72.6817 41.6421 72.974 41.7397 73.2754 41.7528C74.3676 41.7528 74.9136 41.2938 74.9136 40.376C74.9049 40.2302 74.8586 40.0895 74.7795 39.9685C74.7005 39.8475 74.5916 39.7505 74.4641 39.6875C74.1182 39.4821 73.7392 39.3433 73.3453 39.2779C72.3351 39.0725 71.3608 38.7105 70.4552 38.204C69.9789 37.9177 69.5909 37.4976 69.3365 36.9923C69.0225 36.3794 68.8677 35.6927 68.887 34.9994C68.8845 34.4766 68.9858 33.9589 69.1845 33.4781C69.3833 32.9974 69.6752 32.5639 70.0423 32.2044C70.8126 31.3875 71.8604 30.979 73.1855 30.979C73.8394 30.9707 74.4907 31.066 75.1168 31.2613C75.5488 31.376 75.9572 31.5707 76.3221 31.8361L76.7616 32.1803C77.1278 32.5246 77.3076 32.8309 77.3076 33.0718C77.2604 33.4405 77.1152 33.7884 76.8881 34.0769C76.4852 34.6862 76.0757 34.9891 75.6528 34.9891C75.3207 34.9579 75.0035 34.8316 74.7371 34.6242C74.6647 34.5693 74.5968 34.5082 74.534 34.4418C74.4479 34.3568 74.3567 34.2775 74.261 34.2043C73.9738 34.0381 73.6477 33.9571 73.3187 33.9702C72.9802 33.9562 72.6463 34.0552 72.3664 34.2525C72.2449 34.3391 72.1466 34.4563 72.0808 34.5929C72.015 34.7296 71.9838 34.8813 71.9902 35.0338C71.9899 35.198 72.0313 35.3594 72.1101 35.5019C72.189 35.6445 72.3027 35.7632 72.4397 35.8462C72.7788 36.0677 73.1606 36.2099 73.5585 36.2626C74.0515 36.349 74.5395 36.4639 75.0202 36.6069C75.5224 36.752 76.0115 36.942 76.4818 37.1748C76.9602 37.4236 77.3514 37.8207 77.6006 38.3107C77.9176 38.9237 78.0727 39.6124 78.0502 40.3071C78.0624 41.024 77.9046 41.733 77.5906 42.3724C77.3174 42.9385 76.9037 43.4195 76.392 43.7664C75.4921 44.395 74.4313 44.7318 73.3453 44.7336C72.8159 44.7356 72.2886 44.665 71.7771 44.5237C71.3545 44.4138 70.9504 44.2385 70.5784 44.0039C70.0756 43.7217 69.6329 43.3377 69.2765 42.8749L69.1167 42.6821Z" fill="#F59E0B"/>
<path d="M87.1731 31.7018C87.2241 31.6092 87.2925 31.5281 87.3748 31.4632C87.4564 31.3981 87.5494 31.3505 87.6491 31.3232C88.1967 31.1863 88.7674 31.1863 89.3142 31.3232C89.4781 31.3678 89.6338 31.4411 89.7738 31.54C89.8866 31.6361 89.9714 31.7623 90.02 31.9049C90.0908 32.2148 90.1213 32.5332 90.1098 32.8515V42.9609C90.113 43.17 90.104 43.3793 90.0834 43.5874C90.0488 43.7543 89.987 43.9139 89.8998 44.0589C89.7367 44.4031 89.2772 44.5477 88.5286 44.5477C87.7067 44.5477 87.2258 44.3183 87.0833 43.8593C87.0001 43.5503 86.9639 43.2298 86.9771 42.9093V39.24H82.3153V42.9575C82.3181 43.1666 82.3092 43.3758 82.2887 43.5839C82.2616 43.7547 82.2052 43.919 82.1222 44.0693C81.9557 44.4135 81.4996 44.558 80.747 44.558C79.9247 44.558 79.4452 44.3343 79.302 43.8696C79.2202 43.5604 79.1855 43.2399 79.1988 42.9196V32.8136C79.1953 32.6045 79.2031 32.3953 79.2221 32.1871C79.252 32.0166 79.3094 31.8526 79.3919 31.7018C79.5551 31.3748 80.0145 31.2095 80.7637 31.2095C81.5861 31.2095 82.0756 31.4368 82.2287 31.898C82.2964 32.2084 82.3255 32.5265 82.3153 32.8445V36.5621H86.9771V32.8136C86.9738 32.6044 86.9828 32.3952 87.0034 32.1871C87.0314 32.0162 87.0891 31.8518 87.1731 31.7018Z" fill="#F59E0B"/>
<path d="M98.9602 32.1594L103.714 42.3377C103.876 42.6227 103.978 42.9392 104.014 43.2672C104.014 43.7043 103.682 44.0967 102.992 44.4512C102.703 44.6237 102.382 44.7294 102.05 44.761C101.85 44.7693 101.653 44.7114 101.487 44.5958C101.358 44.5073 101.25 44.3896 101.171 44.2516C101.104 44.1311 101.014 43.9487 100.898 43.7077L99.9822 41.7389H95.1012L94.1854 43.7077C94.0685 43.9487 93.9754 44.1242 93.912 44.2344C93.8297 44.3691 93.7218 44.486 93.5958 44.5786C93.4327 44.6996 93.2342 44.7602 93.0333 44.7507C92.7006 44.7187 92.3778 44.6131 92.0879 44.4408C91.4085 44.1036 91.0684 43.7158 91.0684 43.2774C91.1038 42.9492 91.2059 42.6323 91.3681 42.348L96.1232 32.1663C96.2566 31.8913 96.46 31.6592 96.712 31.4954C96.964 31.3315 97.2539 31.2422 97.5512 31.2369C97.8485 31.2283 98.1408 31.3114 98.392 31.4757C98.6432 31.6401 98.8408 31.8782 98.9602 32.1594ZM97.5314 36.5275L96.3694 39.023H98.7L97.5314 36.5275Z" fill="#F59E0B"/>
<path d="M112.172 41.0641L112.488 40.8266C112.741 40.6417 113.029 40.5171 113.334 40.4617C113.701 40.4617 114.094 40.806 114.516 41.4944C114.731 41.7973 114.864 42.1536 114.902 42.527C114.905 42.644 114.887 42.7606 114.846 42.8699C114.806 42.9793 114.744 43.0791 114.666 43.1638C114.501 43.3397 114.314 43.4924 114.11 43.6182L113.501 44.0002C113.122 44.2012 112.723 44.3605 112.312 44.4752C111.751 44.6629 111.167 44.7615 110.577 44.7679C110.006 44.7665 109.438 44.689 108.886 44.5372C108.269 44.3648 107.676 44.1079 107.125 43.7731C106.524 43.4183 105.976 42.9767 105.497 42.4616C104.979 41.8875 104.574 41.2139 104.307 40.479C103.99 39.6404 103.83 38.7465 103.838 37.8458C103.826 36.9636 103.982 36.0876 104.298 35.2676C104.565 34.5585 104.963 33.9098 105.469 33.3573C105.948 32.8527 106.496 32.4257 107.098 32.0906C108.155 31.4616 109.351 31.1228 110.57 31.1061C111.606 31.1265 112.622 31.3927 113.541 31.8841L113.963 32.1388C114.173 32.2731 114.34 32.3832 114.457 32.483C114.593 32.58 114.705 32.7087 114.784 32.8588C114.863 33.0088 114.907 33.176 114.913 33.347C114.893 33.711 114.763 34.0593 114.54 34.3418C114.084 34.9992 113.67 35.3262 113.308 35.3262C112.979 35.278 112.669 35.1402 112.409 34.9268C111.841 34.4894 111.144 34.2704 110.438 34.3073C109.62 34.3256 108.829 34.6124 108.18 35.1266C107.805 35.4257 107.504 35.8126 107.301 36.2555C107.069 36.7719 106.948 37.3346 106.948 37.9043C106.948 38.474 107.069 39.0367 107.301 39.5531C107.507 40.0044 107.816 40.3976 108.2 40.6993C108.843 41.2077 109.627 41.4889 110.438 41.5013C110.785 41.5034 111.132 41.4547 111.466 41.3567C111.713 41.293 111.951 41.1946 112.172 41.0641Z" fill="#F59E0B"/>
<path d="M121.598 37.8633C123.392 39.6462 124.666 40.9875 125.42 41.8871C125.736 42.1858 125.941 42.5886 126 43.0264C126 43.3362 125.767 43.7148 125.297 44.1175C124.828 44.5203 124.442 44.7474 124.142 44.7474C123.842 44.7474 123.476 44.4893 123.06 43.9799L119.201 39.4053V42.9576C119.204 43.1702 119.195 43.3828 119.175 43.5943C119.144 43.761 119.088 43.9215 119.007 44.0694C118.841 44.3964 118.385 44.5616 117.633 44.5616C116.809 44.5616 116.328 44.3321 116.188 43.8732C116.104 43.5714 116.067 43.2575 116.081 42.9438V32.8137C116.078 32.6045 116.087 32.3953 116.108 32.1872C116.135 32.0164 116.191 31.8521 116.274 31.7019C116.44 31.3749 116.897 31.2096 117.649 31.2096C118.471 31.2096 118.958 31.4368 119.111 31.8981C119.182 32.208 119.212 32.5264 119.201 32.8446V36.3246C120.797 34.4659 122.089 32.9422 123.076 31.7535C123.486 31.2544 123.846 31.0066 124.149 31.0066C124.452 31.0066 124.845 31.2166 125.314 31.6365C125.783 32.0564 126.016 32.4179 126.016 32.7276C125.968 33.1469 125.781 33.536 125.487 33.8291C124.808 34.6415 123.752 35.759 122.317 37.1817L121.598 37.8633Z" fill="#F59E0B"/>
</g>
<path d="M106.486 47.9727L105.314 49.1504C105.256 48.9863 105.176 48.8398 105.074 48.7109C104.973 48.5781 104.857 48.4668 104.729 48.377C104.604 48.2871 104.467 48.2188 104.318 48.1719C104.17 48.125 104.018 48.1016 103.861 48.1016C103.643 48.1016 103.436 48.1465 103.24 48.2363C103.049 48.3262 102.881 48.4531 102.736 48.6172C102.596 48.7773 102.484 48.9688 102.402 49.1914C102.32 49.4141 102.279 49.6602 102.279 49.9297C102.279 50.1484 102.32 50.3535 102.402 50.5449C102.484 50.7363 102.596 50.9043 102.736 51.0488C102.881 51.1934 103.049 51.3066 103.24 51.3887C103.436 51.4707 103.643 51.5117 103.861 51.5117C104.018 51.5117 104.168 51.4902 104.312 51.4473C104.457 51.4043 104.592 51.3438 104.717 51.2656C104.846 51.1836 104.959 51.0859 105.057 50.9727C105.158 50.8555 105.24 50.7266 105.303 50.5859L106.475 51.7637C106.326 51.9746 106.154 52.1641 105.959 52.332C105.768 52.5 105.559 52.6426 105.332 52.7598C105.109 52.877 104.873 52.9648 104.623 53.0234C104.377 53.0859 104.123 53.1172 103.861 53.1172C103.42 53.1172 103.004 53.0352 102.613 52.8711C102.227 52.7031 101.887 52.4746 101.594 52.1855C101.305 51.8965 101.076 51.5586 100.908 51.1719C100.74 50.7852 100.656 50.3711 100.656 49.9297C100.656 49.4492 100.74 49 100.908 48.582C101.076 48.1641 101.305 47.8008 101.594 47.4922C101.887 47.1797 102.227 46.9336 102.613 46.7539C103.004 46.5742 103.42 46.4844 103.861 46.4844C104.123 46.4844 104.379 46.5176 104.629 46.584C104.883 46.6504 105.123 46.748 105.35 46.877C105.58 47.002 105.791 47.1562 105.982 47.3398C106.178 47.5234 106.346 47.7344 106.486 47.9727ZM116.502 53H114.908V49.0156C114.908 48.9062 114.887 48.8027 114.844 48.7051C114.805 48.6074 114.748 48.5215 114.674 48.4473C114.6 48.373 114.514 48.3164 114.416 48.2773C114.318 48.2344 114.215 48.2129 114.105 48.2129C113.996 48.2129 113.893 48.2344 113.795 48.2773C113.701 48.3164 113.617 48.373 113.543 48.4473C113.473 48.5215 113.416 48.6074 113.373 48.7051C113.334 48.8027 113.314 48.9062 113.314 49.0156V53H111.715V49.0156C111.715 48.9062 111.693 48.8027 111.65 48.7051C111.611 48.6074 111.555 48.5215 111.48 48.4473C111.406 48.373 111.32 48.3164 111.223 48.2773C111.125 48.2344 111.021 48.2129 110.912 48.2129C110.803 48.2129 110.699 48.2344 110.602 48.2773C110.508 48.3164 110.424 48.373 110.35 48.4473C110.279 48.5215 110.223 48.6074 110.18 48.7051C110.141 48.8027 110.121 48.9062 110.121 49.0156V53H108.521V46.7246H108.908L109.342 47.2051C109.564 47.0176 109.809 46.873 110.074 46.7715C110.344 46.666 110.623 46.6133 110.912 46.6133C111.205 46.6133 111.49 46.668 111.768 46.7773C112.049 46.8867 112.295 47.0762 112.506 47.3457C112.604 47.2129 112.715 47.0996 112.84 47.0059C112.965 46.9121 113.096 46.8359 113.232 46.7773C113.373 46.7188 113.518 46.6777 113.666 46.6543C113.814 46.627 113.961 46.6133 114.105 46.6133C114.438 46.6133 114.748 46.6758 115.037 46.8008C115.33 46.9258 115.584 47.0977 115.799 47.3164C116.018 47.5312 116.189 47.7852 116.314 48.0781C116.439 48.3711 116.502 48.6836 116.502 49.0156V53ZM122.369 53H118.713V51.4062H122.369C122.479 51.4062 122.572 51.3672 122.65 51.2891C122.729 51.2109 122.768 51.1172 122.768 51.0078C122.768 50.8945 122.729 50.8203 122.65 50.7852C122.572 50.75 122.479 50.7324 122.369 50.7324H120.705C120.428 50.7324 120.168 50.6797 119.926 50.5742C119.684 50.4688 119.473 50.3262 119.293 50.1465C119.113 49.9629 118.971 49.75 118.865 49.5078C118.764 49.2656 118.713 49.0059 118.713 48.7285C118.713 48.4512 118.764 48.1914 118.865 47.9492C118.971 47.707 119.113 47.4961 119.293 47.3164C119.473 47.1367 119.684 46.9961 119.926 46.8945C120.168 46.7891 120.428 46.7363 120.705 46.7363H123.945V48.3301H120.705C120.596 48.3301 120.502 48.3691 120.424 48.4473C120.346 48.5254 120.307 48.6191 120.307 48.7285C120.307 48.8418 120.346 48.9395 120.424 49.0215C120.502 49.0996 120.596 49.1387 120.705 49.1387H122.369C122.643 49.1387 122.9 49.1855 123.143 49.2793C123.385 49.3691 123.596 49.4961 123.775 49.6602C123.955 49.8242 124.098 50.0215 124.203 50.252C124.309 50.4824 124.361 50.7344 124.361 51.0078C124.361 51.2852 124.309 51.5449 124.203 51.7871C124.098 52.0254 123.955 52.2363 123.775 52.4199C123.596 52.5996 123.385 52.7422 123.143 52.8477C122.9 52.9492 122.643 53 122.369 53Z" fill="black"/>
<path d="M100.393 54.5938H124.602V54.834H100.393V54.5938Z" fill="black"/>
<defs>
<clipPath id="clip0_142_636">
<rect width="126" height="48.8572" fill="white"/>
</clipPath>
</defs>
</svg>
