<svg width="19" height="19" viewBox="0 0 19 19" fill="none" xmlns="http://www.w3.org/2000/svg">
<path d="M7.0722 0.728002C5.87359 0.723923 4.70012 1.07162 3.6972 1.728L7.6972 5.728C7.83041 5.84166 7.93954 5.98083 8.01814 6.13732C8.09675 6.2938 8.14324 6.46443 8.15489 6.63915C8.16654 6.81388 8.14311 6.98917 8.08597 7.15471C8.02883 7.32024 7.93915 7.47266 7.8222 7.603C7.69186 7.71995 7.53943 7.80963 7.3739 7.86677C7.20837 7.92391 7.03308 7.94734 6.85835 7.93569C6.68362 7.92405 6.513 7.87755 6.35651 7.79895C6.20003 7.72034 6.06086 7.61122 5.9472 7.478L1.8222 3.478C1.10901 4.52746 0.73788 5.77183 0.759699 7.0405C0.766282 8.71265 1.43346 10.3144 2.61586 11.4968C3.79826 12.6792 5.40005 13.3464 7.0722 13.353C7.61943 13.356 8.16503 13.293 8.6972 13.1655L12.8847 17.353C13.4731 17.9415 14.2713 18.272 15.1034 18.272C15.9356 18.272 16.7337 17.9415 17.3222 17.353C17.9106 16.7646 18.2412 15.9664 18.2412 15.1343C18.2412 14.3021 17.9106 13.504 17.3222 12.9155L13.1347 8.728C13.2622 8.19583 13.3252 7.65023 13.3222 7.103C13.3388 6.27178 13.1894 5.4456 12.8828 4.67282C12.5762 3.90005 12.1184 3.19623 11.5364 2.60256C10.9544 2.00888 10.2597 1.5373 9.4932 1.21542C8.72665 0.893544 7.90359 0.727835 7.0722 0.728002ZM12.0722 7.0405C12.0713 7.48461 12.0082 7.9264 11.8847 8.353L11.6972 9.0405L12.1972 9.5405L16.3847 13.728C16.563 13.8968 16.7049 14.1004 16.8017 14.3261C16.8984 14.5518 16.9479 14.7949 16.9472 15.0405C16.9542 15.287 16.9076 15.532 16.8104 15.7587C16.7133 15.9853 16.568 16.1881 16.3847 16.353C16.2154 16.5307 16.0118 16.6723 15.7862 16.7689C15.5606 16.8656 15.3177 16.9155 15.0722 16.9155C14.8267 16.9155 14.5838 16.8656 14.3582 16.7689C14.1326 16.6723 13.929 16.5307 13.7597 16.353L9.5722 12.1655L9.0722 11.6655L8.3847 11.853C7.9581 11.9765 7.51631 12.0396 7.0722 12.0405C5.74412 12.0368 4.46842 11.5221 3.5097 10.603C3.02485 10.1468 2.6409 9.59411 2.38256 8.98055C2.12422 8.36698 1.9972 7.70612 2.0097 7.0405C2.01056 6.57585 2.07362 6.11341 2.1972 5.6655L4.9472 8.4155C5.17957 8.66837 5.45995 8.87245 5.77201 9.01584C6.08406 9.15924 6.42153 9.23908 6.76476 9.25072C7.10798 9.26235 7.45009 9.20554 7.77113 9.08361C8.09218 8.96168 8.38574 8.77705 8.6347 8.5405C8.87125 8.29154 9.05587 7.99798 9.17781 7.67693C9.29974 7.35589 9.35655 7.01378 9.34491 6.67056C9.33328 6.32733 9.25344 5.98986 9.11004 5.67781C8.96665 5.36576 8.76256 5.08537 8.5097 4.853L5.7597 2.103C6.16391 1.97516 6.58576 1.91188 7.0097 1.9155C8.33778 1.91919 9.61348 2.43395 10.5722 3.353C11.5318 4.34092 12.0697 5.66325 12.0722 7.0405Z" fill="white"/>
</svg>
