<svg width="15" height="15" viewBox="0 0 15 15" fill="none" xmlns="http://www.w3.org/2000/svg">
<g clip-path="url(#clip0_20_687)">
<path d="M15 8.8623C15 8.18848 14.9707 7.58301 14.9121 7.0459C14.7754 5.7959 14.3652 4.66797 13.6816 3.66211C12.998 2.65625 12.1191 1.87012 11.0449 1.30371C9.9707 0.737305 8.80371 0.454102 7.54395 0.454102C6.22559 0.454102 5.00977 0.766602 3.89648 1.3916C2.7832 2.0166 1.88477 2.87842 1.20117 3.97705C0.517578 5.07568 0.141602 6.29395 0.0732422 7.63184C0.0537109 8.11035 0.0390625 8.47656 0.0292969 8.73047V8.9502C0.0292969 8.97949 0.0268555 9.00879 0.0219727 9.03809L0.00732422 9.12598L0 9.21387V13.3008C0 13.6426 0.12207 13.9355 0.366211 14.1797C0.610352 14.4238 0.90332 14.5459 1.24512 14.5459H2.50488C2.85645 14.5459 3.15186 14.4238 3.39111 14.1797C3.63037 13.9355 3.75 13.6426 3.75 13.3008V9.21387C3.75 8.98926 3.69629 8.78174 3.58887 8.59131C3.48145 8.40088 3.33252 8.24951 3.14209 8.13721C2.95166 8.0249 2.73926 7.96875 2.50488 7.96875H1.24512C1.20605 7.96875 1.16455 7.97119 1.12061 7.97607C1.07666 7.98096 1.03516 7.98828 0.996094 7.99805C0.996094 7.93945 0.998535 7.87354 1.00342 7.80029L1.01074 7.69043C1.05957 6.80176 1.26465 5.96924 1.62598 5.19287C1.9873 4.4165 2.45605 3.75 3.03223 3.19336C3.6084 2.63672 4.28955 2.19727 5.07568 1.875C5.86182 1.55273 6.68457 1.3916 7.54395 1.3916C8.37402 1.3916 9.1626 1.53809 9.90967 1.83105C10.6567 2.12402 11.3135 2.52197 11.8799 3.0249C12.4463 3.52783 12.915 4.13574 13.2861 4.84863C13.6572 5.56152 13.8867 6.32812 13.9746 7.14844C13.9941 7.28516 14.0137 7.56836 14.0332 7.99805C14.0039 7.99805 13.9746 7.99561 13.9453 7.99072C13.916 7.98584 13.8843 7.98096 13.8501 7.97607C13.8159 7.97119 13.7842 7.96875 13.7549 7.96875H12.5098C12.1582 7.96875 11.8628 8.09082 11.6235 8.33496C11.3843 8.5791 11.2646 8.87207 11.2646 9.21387V13.2861C11.2646 13.4229 11.2842 13.5522 11.3232 13.6743C11.3623 13.7964 11.4209 13.9087 11.499 14.0112C11.5771 14.1138 11.6675 14.2041 11.77 14.2822C11.8726 14.3604 11.9873 14.4214 12.1143 14.4653C12.2412 14.5093 12.373 14.5312 12.5098 14.5312H13.7549C14.0967 14.5312 14.3896 14.4092 14.6338 14.165C14.8779 13.9209 15 13.6279 15 13.2861V9.21387C15 9.14551 14.9902 9.07227 14.9707 8.99414C14.9902 8.94531 15 8.90137 15 8.8623ZM1.24512 8.90625H2.50488C2.56348 8.90625 2.61719 8.9209 2.66602 8.9502C2.71484 8.97949 2.75146 9.01611 2.77588 9.06006C2.80029 9.104 2.8125 9.15527 2.8125 9.21387V13.3008C2.8125 13.3789 2.7832 13.4497 2.72461 13.5132C2.66602 13.5767 2.59277 13.6084 2.50488 13.6084H1.24512C1.18652 13.6084 1.13525 13.5938 1.09131 13.5645C1.04736 13.5352 1.01074 13.4961 0.981445 13.4473C0.952148 13.3984 0.9375 13.3496 0.9375 13.3008V9.21387C0.9375 9.12598 0.966797 9.05273 1.02539 8.99414C1.08398 8.93555 1.15723 8.90625 1.24512 8.90625ZM14.0625 13.2861C14.0625 13.3643 14.0332 13.4351 13.9746 13.4985C13.916 13.562 13.8428 13.5938 13.7549 13.5938H12.5098C12.4805 13.5938 12.4536 13.5913 12.4292 13.5864C12.4048 13.5815 12.3828 13.5718 12.3633 13.5571C12.3438 13.5425 12.3267 13.5303 12.312 13.5205C12.2974 13.5107 12.2827 13.4961 12.2681 13.4766C12.2534 13.457 12.2412 13.4375 12.2314 13.418C12.2217 13.3984 12.2144 13.3765 12.2095 13.3521C12.2046 13.3276 12.2021 13.3057 12.2021 13.2861V9.21387C12.2021 9.12598 12.2314 9.05273 12.29 8.99414C12.3486 8.93555 12.4219 8.90625 12.5098 8.90625H13.7549C13.8428 8.90625 13.916 8.93555 13.9746 8.99414C14.0332 9.05273 14.0625 9.12598 14.0625 9.21387V13.2861Z" fill="white"/>
</g>
<defs>
<clipPath id="clip0_20_687">
<rect width="15" height="14.5312" fill="white" transform="translate(0 0.234375)"/>
</clipPath>
</defs>
</svg>
