<svg width="18" height="17" viewBox="0 0 18 17" fill="none" xmlns="http://www.w3.org/2000/svg">
<path d="M9.55959 14.875L2.625 7.94043V9.3571C2.625 9.73251 2.77375 10.0938 3.04292 10.3558L8.56084 15.8738C9.11334 16.4263 10.0129 16.4263 10.5654 15.8738L14.9642 11.475C15.5167 10.9225 15.5167 10.0229 14.9642 9.47043L9.55959 14.875Z" fill="#E3E3E3"/>
<path d="M8.56083 12.3321C8.83708 12.6083 9.19833 12.75 9.55958 12.75C9.92083 12.75 10.2821 12.6083 10.5583 12.3321L14.9571 7.93333C15.5096 7.38083 15.5096 6.48125 14.9571 5.92875L9.43916 0.410833C9.17708 0.14875 8.81583 0 8.44041 0H4.04167C3.2625 0 2.625 0.6375 2.625 1.41667V5.81542C2.625 6.19083 2.77375 6.55208 3.04292 6.81417L8.56083 12.3321ZM4.04167 1.41667H8.44041L13.9583 6.93458L9.55958 11.3333L4.04167 5.81542V1.41667Z" fill="#E3E3E3"/>
<path d="M5.63542 3.89583C6.12442 3.89583 6.52083 3.49942 6.52083 3.01042C6.52083 2.52141 6.12442 2.125 5.63542 2.125C5.14641 2.125 4.75 2.52141 4.75 3.01042C4.75 3.49942 5.14641 3.89583 5.63542 3.89583Z" fill="#E3E3E3"/>
</svg>
