<svg width="9" height="15" viewBox="0 0 9 15" fill="none" xmlns="http://www.w3.org/2000/svg">
<path d="M4.80648 6.63556C3.02259 6.1719 2.44892 5.69253 2.44892 4.94597C2.44892 4.08939 3.24263 3.49214 4.57073 3.49214C5.96955 3.49214 6.48821 4.16012 6.53536 5.14243H8.2721C8.21709 3.79076 7.39194 2.54911 5.74951 2.14833V0.427307H3.39194V2.12475C1.86739 2.45481 0.641454 3.44499 0.641454 4.96169C0.641454 6.77701 2.14244 7.68074 4.33497 8.20727C6.29961 8.67878 6.69253 9.37033 6.69253 10.1012C6.69253 10.6434 6.30747 11.5079 4.57073 11.5079C2.95187 11.5079 2.31532 10.7849 2.22888 9.85756H0.5C0.594303 11.5786 1.8831 12.5452 3.39194 12.8674V14.5727H5.74951V12.8831C7.28192 12.5923 8.5 11.7043 8.5 10.0933C8.5 7.86149 6.59037 7.09921 4.80648 6.63556Z" fill="white"/>
</svg>
